# xmcd
#
# Track frame offsets:
#	150
#	13185
#	28370
#	45270
#	60100
#	75760
#	91540
#	106165
#	121062
#	136072
#
# Disc length: 2029 seconds
#
# Revision: 1
# Processed by: cddbd v1.5.1PL2 Copyright (c) Steve Scherf et al.
# Submitted via: audiograbber 1.83.01
#
DISCID=5f07eb0a
DTITLE=La Banda Del Pueblo - La Banda Del Pueblo
DYEAR=1900
DGENRE=Merengue
TTITLE0=Totorete
TTITLE1=La Chica Mas Sexy
TTITLE2=El Mono
TTITLE3=Que Te Vaya
TTITLE4=Las Mujeres Con Boso
TTITLE5=En Hoja
TTITLE6=Atirnda O Venda
TTITLE7=Nacu Nacu
TTITLE8=El Palo
TTITLE9=Pegao
EXTD=
EXTT0=
EXTT1=
EXTT2=
EXTT3=
EXTT4=
EXTT5=
EXTT6=
EXTT7=
EXTT8=
EXTT9=
PLAYORDER=
